<svg xmlns="http://www.w3.org/2000/svg" viewBox="0 0 197.98 42.14">
  <title>Asset 29</title>
  <g id="Layer_2" data-name="Layer 2">
    <g id="Layer_1-2" data-name="Layer 1">
      <g>
        <g>
          <path d="M37,14V2.32h4.38a5.52,5.52,0,0,1,2.14.35,2.78,2.78,0,0,1,1.27,1.1,2.9,2.9,0,0,1,.45,1.54,2.64,2.64,0,0,1-.4,1.4,2.89,2.89,0,0,1-1.23,1.07,3.05,3.05,0,0,1,1.63,1.06,2.84,2.84,0,0,1,.57,1.77,3.43,3.43,0,0,1-.35,1.52,3,3,0,0,1-.85,1.09,3.68,3.68,0,0,1-1.28.57,7.73,7.73,0,0,1-1.88.2Zm1.54-6.77H41a5.71,5.71,0,0,0,1.47-.13,1.68,1.68,0,0,0,.89-.58,1.66,1.66,0,0,0,.29-1,1.89,1.89,0,0,0-.27-1,1.44,1.44,0,0,0-.8-.61,6.65,6.65,0,0,0-1.77-.16H38.49Zm0,5.39H41.4a8,8,0,0,0,1.05,0,2.66,2.66,0,0,0,.89-.32,1.7,1.7,0,0,0,.59-.65,2.06,2.06,0,0,0,.23-1,2,2,0,0,0-.33-1.14,1.81,1.81,0,0,0-.93-.67,5.78,5.78,0,0,0-1.71-.2h-2.7Z" transform="translate(-1.04 -2.32)" style="fill: #fff"/>
          <path d="M47.69,14V5.54H49V6.82a3.38,3.38,0,0,1,.91-1.19,1.59,1.59,0,0,1,.92-.29,2.79,2.79,0,0,1,1.47.47l-.49,1.33a2.05,2.05,0,0,0-1.06-.31,1.35,1.35,0,0,0-.84.28,1.5,1.5,0,0,0-.53.78,5.57,5.57,0,0,0-.24,1.67V14Z" transform="translate(-1.04 -2.32)" style="fill: #fff"/>
          <path d="M52.6,9.76a4.38,4.38,0,0,1,1.3-3.48,4,4,0,0,1,2.66-.94,3.81,3.81,0,0,1,2.85,1.15,4.32,4.32,0,0,1,1.11,3.15A5.67,5.67,0,0,1,60,12.21a3.45,3.45,0,0,1-1.43,1.45,4.07,4.07,0,0,1-2,.52A3.8,3.8,0,0,1,53.69,13,4.54,4.54,0,0,1,52.6,9.76Zm1.47,0a3.6,3.6,0,0,0,.71,2.43,2.25,2.25,0,0,0,1.78.81,2.28,2.28,0,0,0,1.78-.81A3.71,3.71,0,0,0,59,9.71a3.46,3.46,0,0,0-.71-2.37,2.25,2.25,0,0,0-1.77-.81,2.28,2.28,0,0,0-1.78.8A3.61,3.61,0,0,0,54.07,9.76Z" transform="translate(-1.04 -2.32)" style="fill: #fff"/>
          <path d="M67.74,14V12.75a3.12,3.12,0,0,1-2.69,1.43,3.39,3.39,0,0,1-1.39-.29,2.27,2.27,0,0,1-1-.72,2.76,2.76,0,0,1-.44-1.06,7.11,7.11,0,0,1-.09-1.34V5.54H63.6v4.68a9.63,9.63,0,0,0,.08,1.52,1.5,1.5,0,0,0,.58.88,1.74,1.74,0,0,0,1.08.33,2.37,2.37,0,0,0,1.21-.33,1.84,1.84,0,0,0,.8-.9,4.45,4.45,0,0,0,.23-1.65V5.54H69V14Z" transform="translate(-1.04 -2.32)" style="fill: #fff"/>
          <path d="M71,14.69l1.39.21a1.33,1.33,0,0,0,.49.94,2.4,2.4,0,0,0,1.45.39,2.59,2.59,0,0,0,1.54-.39,2,2,0,0,0,.73-1.12,8.92,8.92,0,0,0,.11-1.84A3,3,0,0,1,74.37,14a3.17,3.17,0,0,1-2.7-1.26,4.82,4.82,0,0,1-1-3,5.65,5.65,0,0,1,.44-2.23A3.52,3.52,0,0,1,72.42,5.9a3.44,3.44,0,0,1,2-.56,3.05,3.05,0,0,1,2.47,1.21v-1h1.32v7.3a6.9,6.9,0,0,1-.4,2.8,3,3,0,0,1-1.27,1.3,4.41,4.41,0,0,1-2.15.48,4.05,4.05,0,0,1-2.44-.68A2.31,2.31,0,0,1,71,14.69Zm1.19-5.08A3.62,3.62,0,0,0,72.85,12a2.09,2.09,0,0,0,1.65.76A2.12,2.12,0,0,0,76.16,12a3.56,3.56,0,0,0,.67-2.38,3.44,3.44,0,0,0-.69-2.34,2.13,2.13,0,0,0-1.66-.79,2.08,2.08,0,0,0-1.63.78A3.45,3.45,0,0,0,72.19,9.61Z" transform="translate(-1.04 -2.32)" style="fill: #fff"/>
          <path d="M80.33,14V2.32h1.43V6.51a3.19,3.19,0,0,1,2.53-1.17,3.47,3.47,0,0,1,1.63.37,2.19,2.19,0,0,1,1,1,4.65,4.65,0,0,1,.3,1.89V14H85.78V8.63a2.2,2.2,0,0,0-.47-1.56A1.71,1.71,0,0,0,84,6.58a2.31,2.31,0,0,0-1.2.33,1.86,1.86,0,0,0-.8.89,4.12,4.12,0,0,0-.24,1.56V14Z" transform="translate(-1.04 -2.32)" style="fill: #fff"/>
          <path d="M92.52,12.71,92.73,14a5,5,0,0,1-1.08.13,2.37,2.37,0,0,1-1.21-.25,1.39,1.39,0,0,1-.61-.64,5.15,5.15,0,0,1-.17-1.7V6.65h-1V5.54h1V3.44l1.42-.86v3h1.44V6.65H91.08v4.94a2.49,2.49,0,0,0,.08.79.6.6,0,0,0,.24.28,1,1,0,0,0,.49.1A4.11,4.11,0,0,0,92.52,12.71Z" transform="translate(-1.04 -2.32)" style="fill: #fff"/>
          <path d="M101.58,12.71l.21,1.26a5.09,5.09,0,0,1-1.09.13,2.4,2.4,0,0,1-1.21-.25,1.42,1.42,0,0,1-.6-.64,5.07,5.07,0,0,1-.18-1.7V6.65h-1V5.54h1V3.44l1.43-.86v3h1.44V6.65h-1.44v4.94a2.6,2.6,0,0,0,.07.79.62.62,0,0,0,.25.28.94.94,0,0,0,.49.1A4.11,4.11,0,0,0,101.58,12.71Z" transform="translate(-1.04 -2.32)" style="fill: #fff"/>
          <path d="M102.45,9.76a4.38,4.38,0,0,1,1.3-3.48,4,4,0,0,1,2.66-.94,3.81,3.81,0,0,1,2.85,1.15,4.32,4.32,0,0,1,1.11,3.15,5.67,5.67,0,0,1-.49,2.57,3.45,3.45,0,0,1-1.43,1.45,4.07,4.07,0,0,1-2,.52A3.8,3.8,0,0,1,103.54,13,4.54,4.54,0,0,1,102.45,9.76Zm1.47,0a3.6,3.6,0,0,0,.71,2.43,2.25,2.25,0,0,0,1.78.81,2.28,2.28,0,0,0,1.78-.81,3.71,3.71,0,0,0,.7-2.48,3.46,3.46,0,0,0-.71-2.37,2.25,2.25,0,0,0-1.77-.81,2.28,2.28,0,0,0-1.78.8A3.61,3.61,0,0,0,103.92,9.76Z" transform="translate(-1.04 -2.32)" style="fill: #fff"/>
          <path d="M116.51,17.24l-.16-1.34a3.44,3.44,0,0,0,.82.13,1.69,1.69,0,0,0,.77-.16,1.44,1.44,0,0,0,.47-.45,7.19,7.19,0,0,0,.43-1.06L119,14l-3.21-8.46h1.55l1.76,4.89c.22.62.43,1.28.61,2a18,18,0,0,1,.59-1.93l1.8-4.92h1.44l-3.22,8.59a16.28,16.28,0,0,1-.8,1.92,2.9,2.9,0,0,1-.88,1,2.07,2.07,0,0,1-1.18.33A2.81,2.81,0,0,1,116.51,17.24Z" transform="translate(-1.04 -2.32)" style="fill: #fff"/>
          <path d="M124.19,9.76a4.38,4.38,0,0,1,1.31-3.48,4,4,0,0,1,2.66-.94A3.77,3.77,0,0,1,131,6.49a4.32,4.32,0,0,1,1.11,3.15,5.54,5.54,0,0,1-.49,2.57,3.42,3.42,0,0,1-1.42,1.45,4.13,4.13,0,0,1-2,.52A3.79,3.79,0,0,1,125.29,13,4.55,4.55,0,0,1,124.19,9.76Zm1.47,0a3.6,3.6,0,0,0,.71,2.43,2.27,2.27,0,0,0,1.79.81,2.25,2.25,0,0,0,1.77-.81,3.71,3.71,0,0,0,.71-2.48,3.51,3.51,0,0,0-.71-2.37,2.37,2.37,0,0,0-3.56,0A3.61,3.61,0,0,0,125.66,9.76Z" transform="translate(-1.04 -2.32)" style="fill: #fff"/>
          <path d="M139.33,14V12.75a3.1,3.1,0,0,1-2.68,1.43,3.44,3.44,0,0,1-1.4-.29,2.29,2.29,0,0,1-1-.72,2.61,2.61,0,0,1-.44-1.06,7.11,7.11,0,0,1-.09-1.34V5.54h1.43v4.68a8.22,8.22,0,0,0,.09,1.52,1.49,1.49,0,0,0,.57.88,1.74,1.74,0,0,0,1.08.33,2.34,2.34,0,0,0,1.21-.33,1.79,1.79,0,0,0,.8-.9,4.42,4.42,0,0,0,.24-1.65V5.54h1.43V14Z" transform="translate(-1.04 -2.32)" style="fill: #fff"/>
          <path d="M148.71,14h-1.33V2.32h1.43V6.48a2.83,2.83,0,0,1,2.32-1.14,3.5,3.5,0,0,1,1.47.32,3,3,0,0,1,1.15.88,4.27,4.27,0,0,1,.7,1.38,5.62,5.62,0,0,1,.26,1.71A4.81,4.81,0,0,1,153.63,13a3.32,3.32,0,0,1-2.58,1.19,2.69,2.69,0,0,1-2.34-1.25Zm0-4.29a4.51,4.51,0,0,0,.41,2.2,2.09,2.09,0,0,0,1.84,1.1,2.07,2.07,0,0,0,1.62-.81,3.72,3.72,0,0,0,.68-2.44,3.82,3.82,0,0,0-.65-2.44,2,2,0,0,0-3.21,0A3.55,3.55,0,0,0,148.69,9.7Z" transform="translate(-1.04 -2.32)" style="fill: #fff"/>
          <path d="M156.39,17.24l-.16-1.34a3.37,3.37,0,0,0,.82.13,1.62,1.62,0,0,0,.76-.16,1.35,1.35,0,0,0,.47-.45,6.82,6.82,0,0,0,.44-1.06l.13-.36-3.21-8.46h1.54l1.76,4.89c.23.62.43,1.28.62,2,.16-.66.36-1.3.58-1.93L162,5.54h1.43l-3.21,8.59a15.85,15.85,0,0,1-.81,1.92,2.79,2.79,0,0,1-.87,1,2.07,2.07,0,0,1-1.18.33A2.77,2.77,0,0,1,156.39,17.24Z" transform="translate(-1.04 -2.32)" style="fill: #fff"/>
        </g>
        <g>
          <path d="M11.6,34.4l3.07,1a6.83,6.83,0,0,1-2.34,3.8,6.7,6.7,0,0,1-4.16,1.25A6.74,6.74,0,0,1,3,38.29a8.14,8.14,0,0,1-2-5.83,8.56,8.56,0,0,1,2-6.06,6.91,6.91,0,0,1,5.31-2.17A6.5,6.5,0,0,1,13,25.93a6.15,6.15,0,0,1,1.61,2.88l-3.13.75a3.25,3.25,0,0,0-3.3-2.63,3.56,3.56,0,0,0-2.82,1.25,6.11,6.11,0,0,0-1.09,4,6.58,6.58,0,0,0,1.07,4.23,3.47,3.47,0,0,0,2.78,1.26,3.16,3.16,0,0,0,2.16-.8A4.64,4.64,0,0,0,11.6,34.4Z" transform="translate(-1.04 -2.32)" style="fill: #fff"/>
          <path d="M16.67,34.32a6.14,6.14,0,0,1,.73-2.89,5.13,5.13,0,0,1,2.09-2.14,6.22,6.22,0,0,1,3-.73,5.62,5.62,0,0,1,4.21,1.67,5.75,5.75,0,0,1,1.65,4.22,5.88,5.88,0,0,1-1.66,4.27,5.65,5.65,0,0,1-4.18,1.69,6.63,6.63,0,0,1-3-.71,4.87,4.87,0,0,1-2.15-2.06A6.93,6.93,0,0,1,16.67,34.32Zm3.07.16a3.79,3.79,0,0,0,.8,2.59,2.64,2.64,0,0,0,3.95,0,3.82,3.82,0,0,0,.79-2.61,3.74,3.74,0,0,0-.79-2.56,2.62,2.62,0,0,0-3.95,0A3.78,3.78,0,0,0,19.74,34.48Z" transform="translate(-1.04 -2.32)" style="fill: #fff"/>
          <path d="M30.49,28.81h2.77v1.55a4.44,4.44,0,0,1,3.53-1.8,3.78,3.78,0,0,1,1.89.45A3.41,3.41,0,0,1,40,30.36,5.25,5.25,0,0,1,41.6,29a4,4,0,0,1,1.85-.45,4.21,4.21,0,0,1,2.12.5,3.2,3.2,0,0,1,1.29,1.49,6.64,6.64,0,0,1,.31,2.35v7.25h-3V33.67a5,5,0,0,0-.31-2.18,1.44,1.44,0,0,0-1.28-.64,2,2,0,0,0-1.19.39,2.09,2.09,0,0,0-.8,1.12,8.35,8.35,0,0,0-.24,2.35v5.44h-3V33.94a9,9,0,0,0-.16-2.14,1.37,1.37,0,0,0-.5-.71,1.56,1.56,0,0,0-.91-.24,2.17,2.17,0,0,0-1.25.38,2,2,0,0,0-.8,1.07,8,8,0,0,0-.24,2.34v5.51h-3Z" transform="translate(-1.04 -2.32)" style="fill: #fff"/>
          <path d="M50.07,28.81h2.8v1.67a4.18,4.18,0,0,1,1.47-1.39,4.13,4.13,0,0,1,2.06-.53,4.28,4.28,0,0,1,3.35,1.55,6.25,6.25,0,0,1,1.38,4.31,6.43,6.43,0,0,1-1.39,4.41,4.31,4.31,0,0,1-3.36,1.58,3.79,3.79,0,0,1-1.7-.38,5.45,5.45,0,0,1-1.61-1.28v5.71h-3Zm3,5.48a4.32,4.32,0,0,0,.76,2.82,2.31,2.31,0,0,0,1.84.92,2.16,2.16,0,0,0,1.74-.84,4.28,4.28,0,0,0,.7-2.75,4.09,4.09,0,0,0-.72-2.65,2.21,2.21,0,0,0-1.77-.86,2.28,2.28,0,0,0-1.82.85A3.72,3.72,0,0,0,53,34.29Z" transform="translate(-1.04 -2.32)" style="fill: #fff"/>
          <path d="M65.75,32.27,63,31.78a4.28,4.28,0,0,1,1.58-2.43,5.77,5.77,0,0,1,3.33-.79,7.29,7.29,0,0,1,3,.47,3,3,0,0,1,1.39,1.21,6.28,6.28,0,0,1,.4,2.68l0,3.51a11.66,11.66,0,0,0,.15,2.2,5.94,5.94,0,0,0,.54,1.52h-3a9,9,0,0,1-.29-.88,2.8,2.8,0,0,0-.11-.36A5.21,5.21,0,0,1,68.36,40a4.7,4.7,0,0,1-1.87.38,3.87,3.87,0,0,1-2.76-.95,3.19,3.19,0,0,1-1-2.4,3.3,3.3,0,0,1,.46-1.72,3.07,3.07,0,0,1,1.29-1.15,9.84,9.84,0,0,1,2.38-.7,15.68,15.68,0,0,0,2.92-.74v-.3a1.54,1.54,0,0,0-.43-1.23,2.58,2.58,0,0,0-1.61-.37,2.16,2.16,0,0,0-1.25.32A2.23,2.23,0,0,0,65.75,32.27Zm4,2.44c-.39.12-1,.28-1.83.46a5.35,5.35,0,0,0-1.63.52,1.26,1.26,0,0,0-.59,1.06,1.45,1.45,0,0,0,.47,1.08,1.64,1.64,0,0,0,1.2.46,2.57,2.57,0,0,0,1.55-.53,1.86,1.86,0,0,0,.71-1,5.89,5.89,0,0,0,.12-1.47Z" transform="translate(-1.04 -2.32)" style="fill: #fff"/>
          <path d="M78.55,40.15h-3V28.81h2.78v1.62a4.8,4.8,0,0,1,1.29-1.51,2.37,2.37,0,0,1,1.3-.36,3.85,3.85,0,0,1,2,.56L82,31.74a2.58,2.58,0,0,0-1.41-.49,1.69,1.69,0,0,0-1.07.34,2.37,2.37,0,0,0-.68,1.26,17.61,17.61,0,0,0-.25,3.8Z" transform="translate(-1.04 -2.32)" style="fill: #fff"/>
          <path d="M90.75,36.54l3,.5a4.92,4.92,0,0,1-1.82,2.51,5.38,5.38,0,0,1-3.11.86,5.08,5.08,0,0,1-4.38-1.93,6.5,6.5,0,0,1-1.12-3.91,6.29,6.29,0,0,1,1.47-4.42,4.85,4.85,0,0,1,3.73-1.59,5,5,0,0,1,4,1.67Q94,31.9,93.9,35.35H86.38a3,3,0,0,0,.73,2.07,2.26,2.26,0,0,0,1.73.75A1.8,1.8,0,0,0,90,37.78,2.4,2.4,0,0,0,90.75,36.54Zm.17-3a2.91,2.91,0,0,0-.67-2,2.17,2.17,0,0,0-3.19,0,2.76,2.76,0,0,0-.62,1.94Z" transform="translate(-1.04 -2.32)" style="fill: #fff"/>
          <path d="M101.54,28.81v2.4H99.49v4.56a11.09,11.09,0,0,0,.06,1.62.68.68,0,0,0,.27.38.84.84,0,0,0,.5.15,4,4,0,0,0,1.21-.29l.26,2.33a6,6,0,0,1-2.37.45A3.85,3.85,0,0,1,98,40.14a2.18,2.18,0,0,1-1-.71,2.87,2.87,0,0,1-.42-1.17,13.49,13.49,0,0,1-.1-2.11V31.21H95.1v-2.4h1.38V26.56l3-1.75v4Z" transform="translate(-1.04 -2.32)" style="fill: #fff"/>
          <path d="M106.61,24.5v5.75a4.43,4.43,0,0,1,3.47-1.69,4.49,4.49,0,0,1,1.87.38,3.2,3.2,0,0,1,1.26,1,3.51,3.51,0,0,1,.57,1.33,11.13,11.13,0,0,1,.16,2.25v6.65h-3v-6a9,9,0,0,0-.17-2.26,1.48,1.48,0,0,0-.61-.76,1.93,1.93,0,0,0-1.08-.29,2.46,2.46,0,0,0-1.34.37,2.05,2.05,0,0,0-.85,1.09,6.3,6.3,0,0,0-.28,2.16v5.68h-3V24.5Z" transform="translate(-1.04 -2.32)" style="fill: #fff"/>
          <path d="M123.55,36.54l3,.5a4.86,4.86,0,0,1-1.82,2.51,5.33,5.33,0,0,1-3.11.86,5.07,5.07,0,0,1-4.37-1.93,6.51,6.51,0,0,1-1.13-3.91,6.3,6.3,0,0,1,1.48-4.42,4.85,4.85,0,0,1,3.72-1.59,5,5,0,0,1,4,1.67c1,1.11,1.44,2.82,1.39,5.12h-7.51a3,3,0,0,0,.72,2.07,2.27,2.27,0,0,0,1.73.75,1.83,1.83,0,0,0,1.19-.39A2.4,2.4,0,0,0,123.55,36.54Zm.17-3a2.91,2.91,0,0,0-.68-2,2.05,2.05,0,0,0-1.56-.68,2.08,2.08,0,0,0-1.62.72,2.81,2.81,0,0,0-.63,1.94Z" transform="translate(-1.04 -2.32)" style="fill: #fff"/>
          <path d="M128.92,28.81h2.76v1.55a4.46,4.46,0,0,1,3.53-1.8,3.78,3.78,0,0,1,1.89.45,3.37,3.37,0,0,1,1.32,1.35A5.13,5.13,0,0,1,140,29a4,4,0,0,1,1.85-.45,4.2,4.2,0,0,1,2.11.5,3.09,3.09,0,0,1,1.29,1.49,6.42,6.42,0,0,1,.31,2.35v7.25h-3V33.67a4.8,4.8,0,0,0-.31-2.18,1.43,1.43,0,0,0-1.28-.64,2,2,0,0,0-1.18.39,2.09,2.09,0,0,0-.8,1.12,7.92,7.92,0,0,0-.25,2.35v5.44h-3V33.94a8.47,8.47,0,0,0-.16-2.14,1.31,1.31,0,0,0-.5-.71,1.53,1.53,0,0,0-.91-.24,2.19,2.19,0,0,0-1.25.38,2,2,0,0,0-.79,1.07,8,8,0,0,0-.24,2.34v5.51h-3Z" transform="translate(-1.04 -2.32)" style="fill: #fff"/>
          <path d="M150.82,32.27l-2.72-.49a4.23,4.23,0,0,1,1.58-2.43,5.77,5.77,0,0,1,3.33-.79,7.29,7.29,0,0,1,3,.47,2.93,2.93,0,0,1,1.38,1.21,6.13,6.13,0,0,1,.4,2.68l0,3.51a11.66,11.66,0,0,0,.15,2.2,5.94,5.94,0,0,0,.54,1.52h-3a9,9,0,0,1-.29-.88c-.05-.18-.09-.3-.11-.36A5.21,5.21,0,0,1,153.43,40a4.74,4.74,0,0,1-1.87.38,3.87,3.87,0,0,1-2.76-.95,3.39,3.39,0,0,1-.55-4.12,3,3,0,0,1,1.29-1.15,9.84,9.84,0,0,1,2.38-.7,15.91,15.91,0,0,0,2.92-.74v-.3a1.58,1.58,0,0,0-.43-1.23,2.58,2.58,0,0,0-1.61-.37,2.14,2.14,0,0,0-1.25.32A2.23,2.23,0,0,0,150.82,32.27Zm4,2.44c-.39.12-1,.28-1.83.46a5.25,5.25,0,0,0-1.63.52,1.26,1.26,0,0,0-.59,1.06,1.45,1.45,0,0,0,.47,1.08,1.62,1.62,0,0,0,1.2.46,2.54,2.54,0,0,0,1.54-.53,1.83,1.83,0,0,0,.72-1,5.89,5.89,0,0,0,.12-1.47Z" transform="translate(-1.04 -2.32)" style="fill: #fff"/>
          <path d="M163.61,40.15h-3V28.81h2.79v1.62a4.8,4.8,0,0,1,1.29-1.51,2.36,2.36,0,0,1,1.29-.36,3.86,3.86,0,0,1,2,.56L167,31.74a2.63,2.63,0,0,0-1.41-.49,1.67,1.67,0,0,0-1.07.34,2.44,2.44,0,0,0-.69,1.26,18.31,18.31,0,0,0-.25,3.8Z" transform="translate(-1.04 -2.32)" style="fill: #fff"/>
          <path d="M169.14,40.15V24.5h3v8.31l3.52-4h3.69L175.47,33l4.16,7.19h-3.24l-2.85-5.09-1.4,1.46v3.63Z" transform="translate(-1.04 -2.32)" style="fill: #fff"/>
          <path d="M188,36.54l3,.5a5,5,0,0,1-1.82,2.51,5.39,5.39,0,0,1-3.12.86,5.07,5.07,0,0,1-4.37-1.93,6.5,6.5,0,0,1-1.12-3.91A6.29,6.29,0,0,1,182,30.15a4.85,4.85,0,0,1,3.72-1.59,5,5,0,0,1,4,1.67q1.46,1.66,1.4,5.12h-7.52a3,3,0,0,0,.73,2.07,2.26,2.26,0,0,0,1.73.75,1.8,1.8,0,0,0,1.18-.39A2.4,2.4,0,0,0,188,36.54Zm.17-3a2.86,2.86,0,0,0-.68-2,2,2,0,0,0-1.55-.68,2.09,2.09,0,0,0-1.63.72,2.81,2.81,0,0,0-.63,1.94Z" transform="translate(-1.04 -2.32)" style="fill: #fff"/>
          <path d="M198.77,28.81v2.4h-2.05v4.56a11.09,11.09,0,0,0,.06,1.62.68.68,0,0,0,.27.38.8.8,0,0,0,.5.15,4,4,0,0,0,1.21-.29L199,40a6,6,0,0,1-2.37.45,3.81,3.81,0,0,1-1.47-.27,2.18,2.18,0,0,1-1-.71,2.6,2.6,0,0,1-.42-1.17,13.49,13.49,0,0,1-.1-2.11V31.21h-1.38v-2.4h1.38V26.56l3-1.75v4Z" transform="translate(-1.04 -2.32)" style="fill: #fff"/>
        </g>
      </g>
    </g>
  </g>
</svg>
