<svg xmlns="http://www.w3.org/2000/svg" viewBox="0 0 52.75 52.75">
  <title>business</title>
  <g id="Layer_2" data-name="Layer 2">
    <g id="Layer_1-2" data-name="Layer 1">
      <g>
        <rect width="52.75" height="52.75" rx="26.37" ry="26.37" style="fill: #174093"/>
        <g>
          <g>
            <g>
              <path d="M35,40.65H17.79c-3.3,0-5.67-3.6-5.51-9.11S21.49,19,23.71,14.15H29.8c2.65,4.69,10.5,11.79,10.66,17.39S38.26,40.65,35,40.65Z" style="fill: none;stroke: #fff;stroke-miterlimit: 10;stroke-width: 1.3618559793966685px"/>
              <path d="M25.46,10.77,22.25,6.05H31l-3,4.72" style="fill: none;stroke: #fff;stroke-miterlimit: 10;stroke-width: 1.3618559793966685px"/>
            </g>
            <ellipse cx="26.37" cy="28.35" rx="5.14" ry="5.53" style="fill: none;stroke: #fff;stroke-miterlimit: 10;stroke-width: 1.3618559793966685px"/>
          </g>
          <path d="M29.33,10.77h-5.4A1.27,1.27,0,0,0,22.66,12v.84a1.27,1.27,0,0,0,1.27,1.27h5.4a1.27,1.27,0,0,0,1.27-1.27V12A1.27,1.27,0,0,0,29.33,10.77Z" style="fill: none;stroke: #fff;stroke-miterlimit: 10;stroke-width: 1.2637418723232803px"/>
        </g>
      </g>
    </g>
  </g>
</svg>
