<svg xmlns="http://www.w3.org/2000/svg" viewBox="0 0 31.56 31.56">
  <title>dollars-on</title>
  <g id="Layer_2" data-name="Layer 2">
    <g id="Layer_1-2" data-name="Layer 1">
      <g>
        <circle cx="15.78" cy="15.78" r="15.78" style="fill: #ec5741"/>
        <path d="M16.78,17.57v6.71a5.25,5.25,0,0,0,2.65-1.11,3.74,3.74,0,0,0,1.44-3.05A3.49,3.49,0,0,0,19.18,17a18.85,18.85,0,0,0-3.63-1.31l-.33-.1a11.23,11.23,0,0,1-4-1.64,3.85,3.85,0,0,1-1.29-3,4.44,4.44,0,0,1,1.49-3.46,5.05,5.05,0,0,1,2.45-1.14V3.54h.91V6.19a1.53,1.53,0,0,1,.3,0h.53l.23,0V3.54h.9V6.29A5.09,5.09,0,0,1,19.56,7.6a5.36,5.36,0,0,1,1.66,3.89h-.8A4.44,4.44,0,0,0,16.78,7v7.06l-.9-.25v-7h-.79l-.27,0v6.56l-.91-.25V7A4.3,4.3,0,0,0,12,8a3.73,3.73,0,0,0-1.24,3,3.23,3.23,0,0,0,1.11,2.44,9.16,9.16,0,0,0,3.58,1.47.42.42,0,0,0,.14,0,.74.74,0,0,1,.21.07,20.23,20.23,0,0,1,2.43.73,10.63,10.63,0,0,1,1.56.73,3.94,3.94,0,0,1,1.92,3.51,4.74,4.74,0,0,1-1.64,3.78A6.35,6.35,0,0,1,16.78,25v2.32h-.9V25.09H15.7l-.43,0-.45,0v2.32h-.91V24.88a5.37,5.37,0,0,1-2.53-1.33,6.42,6.42,0,0,1-1.86-4.37h.83A5.51,5.51,0,0,0,12,23a4.57,4.57,0,0,0,1.95,1.13V16.46l.91.25v7.57a5.46,5.46,0,0,0,.9.07h.16v-7Z" style="fill: #fff"/>
      </g>
    </g>
  </g>
</svg>
