<svg xmlns="http://www.w3.org/2000/svg" viewBox="0 0 32.06 32.06">
  <title>dollars-off</title>
  <g id="Layer_2" data-name="Layer 2">
    <g id="Layer_1-2" data-name="Layer 1">
      <g>
        <circle cx="16.03" cy="16.03" r="15.78" style="fill: none;stroke: #1d2d4f;stroke-miterlimit: 10;stroke-width: 0.4950333395091829px"/>
        <path d="M17,17.81v6.72a5.47,5.47,0,0,0,2.65-1.11,3.75,3.75,0,0,0,1.44-3.06,3.5,3.5,0,0,0-1.69-3.15,18.34,18.34,0,0,0-3.64-1.31l-.32-.1a11.05,11.05,0,0,1-4-1.64,3.87,3.87,0,0,1-1.29-3A4.4,4.4,0,0,1,11.71,7.7a5.06,5.06,0,0,1,2.44-1.14V3.79h.91V6.44a1.55,1.55,0,0,1,.31,0h.53l.22,0V3.79H17V6.54a5.12,5.12,0,0,1,2.78,1.31,5.34,5.34,0,0,1,1.66,3.88h-.81a4.42,4.42,0,0,0-1.41-3.35A4.5,4.5,0,0,0,17,7.27v7.06l-.91-.25v-7h-.78l-.28,0V13.7l-.91-.25V7.27a4.2,4.2,0,0,0-1.89.93,3.75,3.75,0,0,0-1.23,3,3.23,3.23,0,0,0,1.11,2.45,9.19,9.19,0,0,0,3.58,1.46.39.39,0,0,0,.14,0,.74.74,0,0,1,.21.07,17.9,17.9,0,0,1,2.42.73,9.45,9.45,0,0,1,1.57.73A3.93,3.93,0,0,1,22,20.14a4.74,4.74,0,0,1-1.64,3.78A6.34,6.34,0,0,1,17,25.28V27.6h-.91V25.33h-.6l-.46,0V27.6h-.91V25.13a5.31,5.31,0,0,1-2.52-1.34,6.45,6.45,0,0,1-1.87-4.36h.84a5.46,5.46,0,0,0,1.61,3.78,4.55,4.55,0,0,0,1.94,1.14V16.7l.91.26v7.57a5.67,5.67,0,0,0,.91.07h.15v-7Z" style="fill: #1d2d4f"/>
      </g>
    </g>
  </g>
</svg>
