<svg xmlns="http://www.w3.org/2000/svg" viewBox="0 0 32.06 32.06">
  <title>euros-off</title>
  <g id="Layer_2" data-name="Layer 2">
    <g id="Layer_1-2" data-name="Layer 1">
      <g>
        <circle cx="16.03" cy="16.03" r="15.78" style="fill: none;stroke: #1d2d4f;stroke-miterlimit: 10;stroke-width: 0.4950333395091829px"/>
        <g>
          <path d="M21.16,23.67a7.14,7.14,0,0,1-4.89,1.64,6.67,6.67,0,0,1-5.86-2.85,11.36,11.36,0,0,1-1.69-6.54,11.46,11.46,0,0,1,1.75-6.63,6.75,6.75,0,0,1,6-2.88A7.13,7.13,0,0,1,21,7.9a5.77,5.77,0,0,1,1.89,2.6l-.78.4q-1.25-3.74-5.83-3.73A5.72,5.72,0,0,0,11.1,10a10.92,10.92,0,0,0-1.49,5.95,11,11,0,0,0,1.44,5.91,5.6,5.6,0,0,0,5.09,2.77,6.54,6.54,0,0,0,4.42-1.46,5.49,5.49,0,0,0,1.74-2.93l.73.38A6.07,6.07,0,0,1,21.16,23.67Z" style="fill: #1d2d4f"/>
          <line x1="7.33" y1="14.76" x2="22.87" y2="14.76" style="fill: none;stroke: #1d2d4f;stroke-miterlimit: 10;stroke-width: 0.8694158192293386px"/>
          <line x1="7.33" y1="17.23" x2="22.87" y2="17.23" style="fill: none;stroke: #1d2d4f;stroke-miterlimit: 10;stroke-width: 0.8694158192293386px"/>
        </g>
      </g>
    </g>
  </g>
</svg>
