<svg xmlns="http://www.w3.org/2000/svg" viewBox="0 0 31.56 31.56">
  <title>euro-on</title>
  <g id="Layer_2" data-name="Layer 2">
    <g id="Layer_1-2" data-name="Layer 1">
      <g>
        <circle cx="15.78" cy="15.78" r="15.78" style="fill: #ec5741"/>
        <g>
          <path d="M20.92,23.42A7.18,7.18,0,0,1,16,25.06a6.64,6.64,0,0,1-5.85-2.85,11.28,11.28,0,0,1-1.69-6.54A11.54,11.54,0,0,1,10.22,9a6.76,6.76,0,0,1,6-2.88,7.13,7.13,0,0,1,4.57,1.49,5.77,5.77,0,0,1,1.89,2.6l-.78.4Q20.6,6.92,16,6.92a5.73,5.73,0,0,0-5.17,2.8,11,11,0,0,0-1.49,5.95,11,11,0,0,0,1.44,5.91,5.6,5.6,0,0,0,5.1,2.77,6.48,6.48,0,0,0,4.41-1.46A5.49,5.49,0,0,0,22.05,20l.73.38A6.08,6.08,0,0,1,20.92,23.42Z" style="fill: #fff"/>
          <line x1="7.08" y1="14.51" x2="22.62" y2="14.51" style="fill: none;stroke: #fff;stroke-miterlimit: 10;stroke-width: 0.8694158192293386px"/>
          <line x1="7.08" y1="16.99" x2="22.62" y2="16.99" style="fill: none;stroke: #fff;stroke-miterlimit: 10;stroke-width: 0.8694158192293386px"/>
        </g>
      </g>
    </g>
  </g>
</svg>
