<svg xmlns="http://www.w3.org/2000/svg" viewBox="0 0 15.7 18.9">
  <title>euro</title>
  <g id="Layer_2" data-name="Layer 2">
    <g id="Layer_1-2" data-name="Layer 1">
      <g>
        <path d="M13.83,20.4A7.14,7.14,0,0,1,8.94,22a6.67,6.67,0,0,1-5.86-2.85,11.36,11.36,0,0,1-1.69-6.54A11.46,11.46,0,0,1,3.14,6,6.75,6.75,0,0,1,9.09,3.14a7.13,7.13,0,0,1,4.57,1.49,5.77,5.77,0,0,1,1.89,2.6l-.78.4Q13.52,3.89,8.94,3.9A5.72,5.72,0,0,0,3.77,6.7a10.92,10.92,0,0,0-1.49,6,11,11,0,0,0,1.44,5.91,5.6,5.6,0,0,0,5.09,2.77,6.54,6.54,0,0,0,4.42-1.46A5.49,5.49,0,0,0,15,16.94l.73.38A6.07,6.07,0,0,1,13.83,20.4Z" transform="translate(0 -3.14)" style="fill: #1d2d4f"/>
        <line y1="8.35" x2="15.54" y2="8.35" style="fill: none;stroke: #1d2d4f;stroke-miterlimit: 10;stroke-width: 0.8694158192293386px"/>
        <line y1="10.82" x2="15.54" y2="10.82" style="fill: none;stroke: #1d2d4f;stroke-miterlimit: 10;stroke-width: 0.8694158192293386px"/>
      </g>
    </g>
  </g>
</svg>
