<svg xmlns="http://www.w3.org/2000/svg" viewBox="0 0 27.4 27.4">
  <title>leading-bank</title>
  <g id="Layer_2" data-name="Layer 2">
    <g id="Layer_1-2" data-name="Layer 1">
      <g>
        <rect width="27.4" height="27.4" rx="13.7" ry="13.7" style="fill: #174093"/>
        <g>
          <polygon points="21.02 11.67 6.03 11.67 13.53 4.34 21.02 11.67" style="fill: none;stroke: #f2f2f2;stroke-miterlimit: 10;stroke-width: 0.45807306924494345px"/>
          <ellipse cx="13.53" cy="8.52" rx="1.43" ry="1.56" style="fill: none;stroke: #f2f2f2;stroke-miterlimit: 10;stroke-width: 0.45807306924494345px"/>
          <rect x="6.16" y="20.64" width="14.74" height="1.08" style="fill: none;stroke: #f2f2f2;stroke-miterlimit: 10;stroke-width: 0.45807306924494345px"/>
          <g>
            <rect x="10.84" y="11.67" width="1.82" height="0.76" style="fill: none;stroke: #f2f2f2;stroke-miterlimit: 10;stroke-width: 0.45807306924494345px"/>
            <rect x="10.97" y="19.89" width="1.82" height="0.76" style="fill: none;stroke: #f2f2f2;stroke-miterlimit: 10;stroke-width: 0.45807306924494345px"/>
            <polygon points="11.28 19.89 12.47 19.89 12.34 12.43 11.15 12.43 11.28 19.89" style="fill: none;stroke: #f2f2f2;stroke-miterlimit: 10;stroke-width: 0.45807306924494345px"/>
          </g>
          <g>
            <rect x="14.39" y="11.67" width="1.82" height="0.76" style="fill: none;stroke: #f2f2f2;stroke-miterlimit: 10;stroke-width: 0.45807306924494345px"/>
            <rect x="14.52" y="19.89" width="1.82" height="0.76" style="fill: none;stroke: #f2f2f2;stroke-miterlimit: 10;stroke-width: 0.45807306924494345px"/>
            <polygon points="14.83 19.89 16.03 19.89 15.9 12.43 14.7 12.43 14.83 19.89" style="fill: none;stroke: #f2f2f2;stroke-miterlimit: 10;stroke-width: 0.45807306924494345px"/>
          </g>
          <g>
            <rect x="17.95" y="11.67" width="1.82" height="0.76" style="fill: none;stroke: #f2f2f2;stroke-miterlimit: 10;stroke-width: 0.45807306924494345px"/>
            <rect x="18.07" y="19.89" width="1.82" height="0.76" style="fill: none;stroke: #f2f2f2;stroke-miterlimit: 10;stroke-width: 0.45807306924494345px"/>
            <polygon points="18.39 19.89 19.58 19.89 19.45 12.43 18.26 12.43 18.39 19.89" style="fill: none;stroke: #f2f2f2;stroke-miterlimit: 10;stroke-width: 0.45807306924494345px"/>
          </g>
          <g>
            <rect x="7.28" y="11.67" width="1.82" height="0.76" style="fill: none;stroke: #f2f2f2;stroke-miterlimit: 10;stroke-width: 0.45807306924494345px"/>
            <rect x="7.41" y="19.89" width="1.82" height="0.76" style="fill: none;stroke: #f2f2f2;stroke-miterlimit: 10;stroke-width: 0.45807306924494345px"/>
            <polygon points="7.72 19.89 8.92 19.89 8.79 12.43 7.59 12.43 7.72 19.89" style="fill: none;stroke: #f2f2f2;stroke-miterlimit: 10;stroke-width: 0.45807306924494345px"/>
          </g>
        </g>
      </g>
    </g>
  </g>
</svg>
