<svg xmlns="http://www.w3.org/2000/svg" viewBox="0 0 803.97 50.04">
  <title>Logo</title>
  <g id="Layer_2" data-name="Layer 2">
    <g id="Layer_1-2" data-name="Layer 1">
      <g>
        <g>
          <path d="M173.12,37.49c0,15.91-7,24.26-21.77,24.26s-21.7-8.35-21.7-24.26,7-24.26,21.7-24.26S173.12,21.58,173.12,37.49Zm-3.67,0c0-13.93-5.42-20.82-18.1-20.82s-18.11,6.89-18.11,20.82,5.5,20.82,18.11,20.82S169.45,51.49,169.45,37.49Z" transform="translate(0 -11.85)" style="fill: #fff"/>
          <path d="M187.19,14V42.69c0,10.49,5.13,15.76,14.95,15.76s15-5.27,15-15.76V14h3.66V42.55c0,12.46-6.67,19.13-18.69,19.13S183.52,55,183.52,42.55V14Z" transform="translate(0 -11.85)" style="fill: #fff"/>
          <path d="M266.86,14v3.52H249.78V61.09h-3.66V17.48H229V14Z" transform="translate(0 -11.85)" style="fill: #fff"/>
          <path d="M339,37.49c0,15.91-7,24.26-21.77,24.26s-21.7-8.35-21.7-24.26,7-24.26,21.7-24.26S339,21.58,339,37.49Zm-3.67,0c0-13.93-5.42-20.82-18.1-20.82s-18.11,6.89-18.11,20.82,5.5,20.82,18.11,20.82S335.32,51.49,335.32,37.49Z" transform="translate(0 -11.85)" style="fill: #fff"/>
          <path d="M378.2,14v3.37H353.42V35.66h21.77v3.52H353.42V61.09h-3.59V14Z" transform="translate(0 -11.85)" style="fill: #fff"/>
          <path d="M443.14,14v3.52H426.06V61.09h-3.67V17.48H405.24V14Z" transform="translate(0 -11.85)" style="fill: #fff"/>
          <path d="M485.5,14V61.09h-3.66V39.25h-27.2V61.09h-3.59V14h3.59V35.73h27.2V14Z" transform="translate(0 -11.85)" style="fill: #fff"/>
          <path d="M501.48,35.58h22.58V39.1H501.48V57.65h25.58v3.44H497.89V14h29.17v3.37H501.48Z" transform="translate(0 -11.85)" style="fill: #fff"/>
          <path d="M589.29,61.09,576.61,41.52H563.05V61.09h-3.67V14H576.1c10,0,15.61,4.91,15.61,13.56,0,9.75-7.48,12.83-11.29,13.42l13.12,20.15ZM563.05,17.4V38.08h12.83c9.38,0,12.16-4.77,12.16-10.34,0-5.28-2.41-10.34-12.16-10.34Z" transform="translate(0 -11.85)" style="fill: #ec5741"/>
          <path d="M606,35.58h22.58V39.1H606V57.65h25.58v3.44H602.41V14h29.17v3.37H606Z" transform="translate(0 -11.85)" style="fill: #ec5741"/>
          <path d="M655.33,14c14.88,0,22.28,8,22.28,23.6s-7.4,23.53-22.28,23.53H641V14Zm-10.7,43.76H655c13,0,18.91-6.45,18.91-20.16S668,17.33,655,17.33H644.63Z" transform="translate(0 -11.85)" style="fill: #ec5741"/>
        </g>
        <path d="M723.61,15l21.91,21.9-21.91,21.9H694.78l19.7-19.7,2.21-2.2-2.21-2.2L694.78,15h28.83m1.29-3.12H687.26l25,25-25,25H724.9l25-25-25-25Z" transform="translate(0 -11.85)" style="fill: #ec5741"/>
        <polygon points="778.95 50.04 803.97 25.02 778.95 0 741.31 0 766.33 25.02 741.31 50.04 778.95 50.04" style="fill: #ec5741"/>
        <path d="M109.19,15l-19.7,19.7-2.21,2.2,2.21,2.2,19.7,19.7H80.36L58.45,36.87,80.36,15h28.83m7.52-3.12H79.07l-25,25,25,25h37.64l-25-25,25-25Z" transform="translate(0 -11.85)" style="fill: #ececec"/>
        <polygon points="25.02 50.04 0 25.02 25.02 0 62.66 0 37.64 25.02 62.66 50.04 25.02 50.04" style="fill: #ececec"/>
      </g>
    </g>
  </g>
</svg>
