<svg xmlns="http://www.w3.org/2000/svg" viewBox="0 0 28.13 28.13">
  <title>national debt</title>
  <g id="Layer_2" data-name="Layer 2">
    <g id="Layer_1-2" data-name="Layer 1">
      <g>
        <rect width="28.13" height="28.13" rx="13.85" ry="13.85" style="fill: #ec5741"/>
        <g>
          <ellipse cx="10.38" cy="7.07" rx="4.3" ry="1.63" style="fill: none;stroke: #f2f2f2;stroke-miterlimit: 10;stroke-width: 0.7122947734796284px"/>
          <g>
            <path d="M6.08,8.27c0,.9,1.93,1.63,4.3,1.63s4.3-.73,4.3-1.63" style="fill: none;stroke: #f2f2f2;stroke-miterlimit: 10;stroke-width: 0.7122947734796284px"/>
            <line x1="6.08" y1="6.85" x2="6.08" y2="8.27" style="fill: none;stroke: #f2f2f2;stroke-miterlimit: 10;stroke-width: 0.7122947734796284px"/>
            <line x1="14.68" y1="7.07" x2="14.68" y2="8.27" style="fill: none;stroke: #f2f2f2;stroke-miterlimit: 10;stroke-width: 0.7122947734796284px"/>
          </g>
          <g>
            <path d="M6.08,9.54c0,.9,1.93,1.63,4.3,1.63s4.3-.73,4.3-1.63" style="fill: none;stroke: #f2f2f2;stroke-miterlimit: 10;stroke-width: 0.7122947734796284px"/>
            <line x1="6.08" y1="8.13" x2="6.08" y2="9.54" style="fill: none;stroke: #f2f2f2;stroke-miterlimit: 10;stroke-width: 0.7122947734796284px"/>
            <line x1="14.68" y1="8.34" x2="14.68" y2="9.54" style="fill: none;stroke: #f2f2f2;stroke-miterlimit: 10;stroke-width: 0.7122947734796284px"/>
          </g>
          <g>
            <path d="M6.08,10.81c0,.91,1.93,1.64,4.3,1.64s4.3-.73,4.3-1.64" style="fill: none;stroke: #f2f2f2;stroke-miterlimit: 10;stroke-width: 0.7122947734796284px"/>
            <line x1="6.08" y1="9.4" x2="6.08" y2="10.81" style="fill: none;stroke: #f2f2f2;stroke-miterlimit: 10;stroke-width: 0.7122947734796284px"/>
            <line x1="14.68" y1="9.62" x2="14.68" y2="10.81" style="fill: none;stroke: #f2f2f2;stroke-miterlimit: 10;stroke-width: 0.7122947734796284px"/>
          </g>
          <g>
            <path d="M6.08,12.09c0,.9,1.93,1.63,4.3,1.63s4.3-.73,4.3-1.63" style="fill: none;stroke: #f2f2f2;stroke-miterlimit: 10;stroke-width: 0.7122947734796284px"/>
            <line x1="6.08" y1="10.68" x2="6.08" y2="12.09" style="fill: none;stroke: #f2f2f2;stroke-miterlimit: 10;stroke-width: 0.7122947734796284px"/>
            <line x1="14.68" y1="10.89" x2="14.68" y2="12.09" style="fill: none;stroke: #f2f2f2;stroke-miterlimit: 10;stroke-width: 0.7122947734796284px"/>
          </g>
          <ellipse cx="19.55" cy="13.97" rx="4.3" ry="1.63" style="fill: none;stroke: #f2f2f2;stroke-miterlimit: 10;stroke-width: 0.7122947734796284px"/>
          <g>
            <path d="M15.25,15.17c0,.9,1.92,1.63,4.3,1.63s4.3-.73,4.3-1.63" style="fill: none;stroke: #f2f2f2;stroke-miterlimit: 10;stroke-width: 0.7122947734796284px"/>
            <line x1="15.25" y1="13.76" x2="15.25" y2="15.17" style="fill: none;stroke: #f2f2f2;stroke-miterlimit: 10;stroke-width: 0.7122947734796284px"/>
            <line x1="23.85" y1="13.97" x2="23.85" y2="15.17" style="fill: none;stroke: #f2f2f2;stroke-miterlimit: 10;stroke-width: 0.7122947734796284px"/>
          </g>
          <g>
            <path d="M15.25,16.44c0,.91,1.92,1.64,4.3,1.64s4.3-.73,4.3-1.64" style="fill: none;stroke: #f2f2f2;stroke-miterlimit: 10;stroke-width: 0.7122947734796284px"/>
            <line x1="15.25" y1="15.03" x2="15.25" y2="16.44" style="fill: none;stroke: #f2f2f2;stroke-miterlimit: 10;stroke-width: 0.7122947734796284px"/>
            <line x1="23.85" y1="15.25" x2="23.85" y2="16.44" style="fill: none;stroke: #f2f2f2;stroke-miterlimit: 10;stroke-width: 0.7122947734796284px"/>
          </g>
          <g>
            <path d="M15.25,17.72c0,.9,1.92,1.63,4.3,1.63s4.3-.73,4.3-1.63" style="fill: none;stroke: #f2f2f2;stroke-miterlimit: 10;stroke-width: 0.7122947734796284px"/>
            <line x1="15.25" y1="16.3" x2="15.25" y2="17.72" style="fill: none;stroke: #f2f2f2;stroke-miterlimit: 10;stroke-width: 0.7122947734796284px"/>
            <line x1="23.85" y1="16.52" x2="23.85" y2="17.72" style="fill: none;stroke: #f2f2f2;stroke-miterlimit: 10;stroke-width: 0.7122947734796284px"/>
          </g>
          <g>
            <path d="M15.25,19c0,.9,1.92,1.63,4.3,1.63s4.3-.73,4.3-1.63" style="fill: none;stroke: #f2f2f2;stroke-miterlimit: 10;stroke-width: 0.7122947734796284px"/>
            <line x1="15.25" y1="17.58" x2="15.25" y2="18.99" style="fill: none;stroke: #f2f2f2;stroke-miterlimit: 10;stroke-width: 0.7122947734796284px"/>
            <line x1="23.85" y1="17.79" x2="23.85" y2="18.99" style="fill: none;stroke: #f2f2f2;stroke-miterlimit: 10;stroke-width: 0.7122947734796284px"/>
          </g>
          <g>
            <path d="M6.08,13.36C6.08,14.27,8,15,10.38,15s4.3-.73,4.3-1.64" style="fill: none;stroke: #f2f2f2;stroke-miterlimit: 10;stroke-width: 0.7122947734796284px"/>
            <line x1="6.08" y1="11.95" x2="6.08" y2="13.36" style="fill: none;stroke: #f2f2f2;stroke-miterlimit: 10;stroke-width: 0.7122947734796284px"/>
            <line x1="14.68" y1="12.17" x2="14.68" y2="13.36" style="fill: none;stroke: #f2f2f2;stroke-miterlimit: 10;stroke-width: 0.7122947734796284px"/>
          </g>
          <g>
            <path d="M6.08,14.64c0,.9,1.93,1.63,4.3,1.63s4.3-.73,4.3-1.63" style="fill: none;stroke: #f2f2f2;stroke-miterlimit: 10;stroke-width: 0.7122947734796284px"/>
            <line x1="6.08" y1="13.23" x2="6.08" y2="14.64" style="fill: none;stroke: #f2f2f2;stroke-miterlimit: 10;stroke-width: 0.7122947734796284px"/>
            <line x1="14.68" y1="13.44" x2="14.68" y2="14.64" style="fill: none;stroke: #f2f2f2;stroke-miterlimit: 10;stroke-width: 0.7122947734796284px"/>
          </g>
          <g>
            <path d="M6.08,15.91c0,.91,1.93,1.64,4.3,1.64s4.3-.73,4.3-1.64" style="fill: none;stroke: #f2f2f2;stroke-miterlimit: 10;stroke-width: 0.7122947734796284px"/>
            <line x1="6.08" y1="14.5" x2="6.08" y2="15.91" style="fill: none;stroke: #f2f2f2;stroke-miterlimit: 10;stroke-width: 0.7122947734796284px"/>
            <line x1="14.68" y1="14.72" x2="14.68" y2="15.91" style="fill: none;stroke: #f2f2f2;stroke-miterlimit: 10;stroke-width: 0.7122947734796284px"/>
          </g>
          <g>
            <path d="M6.08,17.19c0,.9,1.93,1.63,4.3,1.63s4.3-.73,4.3-1.63" style="fill: none;stroke: #f2f2f2;stroke-miterlimit: 10;stroke-width: 0.7122947734796284px"/>
            <line x1="6.08" y1="15.77" x2="6.08" y2="17.19" style="fill: none;stroke: #f2f2f2;stroke-miterlimit: 10;stroke-width: 0.7122947734796284px"/>
            <line x1="14.68" y1="15.99" x2="14.68" y2="17.19" style="fill: none;stroke: #f2f2f2;stroke-miterlimit: 10;stroke-width: 0.7122947734796284px"/>
          </g>
          <g>
            <path d="M6.08,18.46c0,.9,1.93,1.63,4.3,1.63s4.3-.73,4.3-1.63" style="fill: none;stroke: #f2f2f2;stroke-miterlimit: 10;stroke-width: 0.7122947734796284px"/>
            <line x1="6.08" y1="17.05" x2="6.08" y2="18.46" style="fill: none;stroke: #f2f2f2;stroke-miterlimit: 10;stroke-width: 0.7122947734796284px"/>
            <line x1="14.68" y1="17.26" x2="14.68" y2="18.46" style="fill: none;stroke: #f2f2f2;stroke-miterlimit: 10;stroke-width: 0.7122947734796284px"/>
          </g>
        </g>
      </g>
    </g>
  </g>
</svg>
