<svg viewBox="0 0 32.06 32.06" xmlns="http://www.w3.org/2000/svg"><circle cx="16.03" cy="16.03" fill="none" r="15.78" stroke="#1d2d4f" stroke-miterlimit="10" stroke-width=".495033"/><g fill="#1d2d4f"><path d="m11.65 24.26s.23-10.94.23-13.33a3.49 3.49 0 0 1 1.41-3 5.52 5.52 0 0 1 3.31-.93c2.56 0 4.16 1 4.82 3.1l-.73.35a3.65 3.65 0 0 0 -3.91-2.69c-2.68 0-4 1-4 3.17 0 2.43-.22 13.27-.22 13.27z"/><path d="m10.54 15.37h10.53v.81h-10.53z"/><path d="m10.54 17.33h10.53v.81h-10.53z"/><path d="m10.54 24.15h10.53v.81h-10.53z"/></g></svg>