<svg xmlns="http://www.w3.org/2000/svg" viewBox="0 0 52.75 52.75">
  <title>resource</title>
  <g id="Layer_2" data-name="Layer 2">
    <g id="Layer_1-2" data-name="Layer 1">
      <g>
        <rect width="52.75" height="52.75" rx="26.37" ry="26.37" style="fill: #2366b8"/>
        <g>
          <g>
            <path d="M20.26,16.31a3.17,3.17,0,1,1-3.17,3.17,3.18,3.18,0,0,1,3.17-3.17m0-1.32a4.49,4.49,0,1,0,4.49,4.49A4.49,4.49,0,0,0,20.26,15Z" style="fill: #f2f2f2"/>
            <path d="M27.48,21.23h3.33A11.17,11.17,0,0,0,31,19.48h0a11.17,11.17,0,0,0-.14-1.75H27.48a7.46,7.46,0,0,0-.87-2.12L29,13.26a10.81,10.81,0,0,0-2.48-2.48l-2.35,2.35A7.46,7.46,0,0,0,22,12.26V8.93a10.17,10.17,0,0,0-1.75-.15h0a10.2,10.2,0,0,0-1.76.15v3.33a7.4,7.4,0,0,0-2.11.87L14,10.78a9.55,9.55,0,0,0-2.48,2.48l2.35,2.35A7.48,7.48,0,0,0,13,17.73H9.7a11.17,11.17,0,0,0-.14,1.75h0a11.17,11.17,0,0,0,.14,1.75H13a7.48,7.48,0,0,0,.88,2.12L11.56,25.7A10.43,10.43,0,0,0,14,28.18l2.35-2.35a7.72,7.72,0,0,0,2.11.88V30a10.2,10.2,0,0,0,1.76.15h0A10.17,10.17,0,0,0,22,30V26.71a7.78,7.78,0,0,0,2.12-.88l2.35,2.35A10.81,10.81,0,0,0,29,25.7l-2.35-2.35A7.46,7.46,0,0,0,27.48,21.23Z" style="fill: none;stroke: #f2f2f2;stroke-miterlimit: 10;stroke-width: 1.319978729304027px"/>
          </g>
          <g>
            <path d="M33.78,30.46a2,2,0,0,1,1.83,2.88,2,2,0,0,1-1.14,1,1.84,1.84,0,0,1-.69.13,2,2,0,0,1-.7-3.92,2.11,2.11,0,0,1,.7-.13m0-1.32a3.34,3.34,0,1,0,3.14,2.2,3.33,3.33,0,0,0-3.14-2.2Z" style="fill: #f2f2f2"/>
            <path d="M39.28,31.87,41.6,31a8.22,8.22,0,0,0-.34-1.27h0a9.89,9.89,0,0,0-.55-1.19l-2.33.85a5.49,5.49,0,0,0-1.15-1.25l1-2.25a8.14,8.14,0,0,0-2.37-1.1l-1,2.25a5.37,5.37,0,0,0-1.7-.07l-.85-2.33a8.14,8.14,0,0,0-1.26.35h0a7.61,7.61,0,0,0-1.19.55l.85,2.32A5.17,5.17,0,0,0,29.45,29L27.21,28a7.13,7.13,0,0,0-1.1,2.37l2.24,1a5.44,5.44,0,0,0-.07,1.71L26,34a8.46,8.46,0,0,0,.35,1.26h0a8.05,8.05,0,0,0,.55,1.19l2.33-.85a5.49,5.49,0,0,0,1.15,1.25l-1,2.25a8.2,8.2,0,0,0,2.36,1.1l1.05-2.25a5.36,5.36,0,0,0,1.7.07l.85,2.33A7.41,7.41,0,0,0,36.51,40h0a6.79,6.79,0,0,0,1.19-.55l-.85-2.32a5.75,5.75,0,0,0,1.26-1.15l2.24,1a7.89,7.89,0,0,0,1.1-2.37l-2.24-1A5.69,5.69,0,0,0,39.28,31.87Z" style="fill: none;stroke: #f2f2f2;stroke-miterlimit: 10;stroke-width: 1.319978729304027px"/>
          </g>
        </g>
      </g>
    </g>
  </g>
</svg>
