<svg xmlns="http://www.w3.org/2000/svg" xmlns:xlink="http://www.w3.org/1999/xlink" viewBox="0 0 25.24 24.65">
  <defs>
    <clipPath id="clip-path">
      <ellipse cx="12.53" cy="12.32" rx="12.32" ry="12.33" transform="translate(0.19 24.84) rotate(-89.9)" style="fill: #ec5741"/>
    </clipPath>
    <clipPath id="clip-path-2">
      <path d="M14,18.54a.59.59,0,0,1-.16.44.65.65,0,0,1-.46.15H11.63a.51.51,0,0,1-.57-.59V10a.66.66,0,0,1,.14-.42.5.5,0,0,1,.43-.18h1.76a.54.54,0,0,1,.2,0,.76.76,0,0,1,.2.13.65.65,0,0,1,.15.18A.45.45,0,0,1,14,10Z" style="fill: #ec5741;clip-path: url(#clip-path);clip-rule: evenodd"/>
    </clipPath>
    <clipPath id="clip-path-3">
      <path d="M14,7.6a.79.79,0,0,1,0,.2,1.13,1.13,0,0,1-.12.21.77.77,0,0,1-.19.17.54.54,0,0,1-.25.06H11.63c-.38,0-.57-.21-.57-.64V6.11a.63.63,0,0,1,.14-.46.58.58,0,0,1,.43-.13h1.78a.65.65,0,0,1,.43.13.56.56,0,0,1,.17.46Z" style="fill: #ec5741;clip-path: url(#clip-path-2);clip-rule: evenodd"/>
    </clipPath>
  </defs>
  <title>source-meth</title>
  <g id="Layer_2" data-name="Layer 2">
    <g id="Layer_1-2" data-name="Layer 1">
      <g>
        <ellipse cx="12.53" cy="12.32" rx="12.32" ry="12.33" transform="translate(0.19 24.84) rotate(-89.9)" style="fill: #ec5741"/>
        <path d="M14,18.54a.59.59,0,0,1-.16.44.65.65,0,0,1-.46.15H11.63a.51.51,0,0,1-.57-.59V10a.66.66,0,0,1,.14-.42.5.5,0,0,1,.43-.18h1.76a.54.54,0,0,1,.2,0,.76.76,0,0,1,.2.13.65.65,0,0,1,.15.18A.45.45,0,0,1,14,10Z" style="fill: #ec5741;fill-rule: evenodd"/>
        <path d="M14,7.6a.79.79,0,0,1,0,.2,1.13,1.13,0,0,1-.12.21.77.77,0,0,1-.19.17.54.54,0,0,1-.25.06H11.63c-.38,0-.57-.21-.57-.64V6.11a.63.63,0,0,1,.14-.46.58.58,0,0,1,.43-.13h1.78a.65.65,0,0,1,.43.13.56.56,0,0,1,.17.46Z" style="fill: #ec5741;fill-rule: evenodd"/>
        <g style="clip-path: url(#clip-path-3)">
          <rect width="25.24" height="24.65" style="fill: #ec5741"/>
        </g>
      </g>
    </g>
  </g>
</svg>
