<svg xmlns="http://www.w3.org/2000/svg" viewBox="0 0 52.75 52.75">
  <title>sport+culture</title>
  <g id="Layer_2" data-name="Layer 2">
    <g id="Layer_1-2" data-name="Layer 1">
      <g>
        <rect width="52.75" height="52.75" rx="26.37" ry="26.37" style="fill: #dbf1fe"/>
        <g>
          <path d="M21.2,34.91c-3.7,0-9.84-5.44-10.26-12.67a52.68,52.68,0,0,1,.22-8.38,2.56,2.56,0,0,1,3.16-2.23,32.7,32.7,0,0,0,6.88,1,32.5,32.5,0,0,0,6.88-1,2.57,2.57,0,0,1,3.17,2.23,52.68,52.68,0,0,1,.22,8.38C31,29.47,24.91,34.91,21.2,34.91Z" style="fill: none;stroke: #000;stroke-miterlimit: 10;stroke-width: 1.072902622943238px"/>
          <path d="M31.55,21.21A34.76,34.76,0,0,0,39.07,20a2,2,0,0,1,2.44,1.68,53.16,53.16,0,0,1,.3,9.09C41.39,38,35.25,43.45,31.55,43.45c-3,0-7.53-3.51-9.42-8.64" style="fill: none;stroke: #000;stroke-miterlimit: 10;stroke-width: 1.072902622943238px"/>
          <path d="M26.26,25.24c0,1.43-2.26,4-5.06,4s-5.06-2.53-5.06-4Z" style="fill: none;stroke: #000;stroke-miterlimit: 10;stroke-width: 1.2843372433895666px"/>
          <path d="M26.48,36.89c0-1.44,2.27-4,5.07-4s5.06,2.52,5.06,4Z" style="fill: none;stroke: #000;stroke-miterlimit: 10;stroke-width: 1.2843372433895666px"/>
          <path d="M14,20.09a3.29,3.29,0,0,1,3-2.76,3.29,3.29,0,0,1,3,2.76" style="fill: none;stroke: #000;stroke-miterlimit: 10;stroke-width: 1.072902622943238px"/>
          <path d="M22.46,20.09a3.3,3.3,0,0,1,3-2.76,3.3,3.3,0,0,1,3,2.76" style="fill: none;stroke: #000;stroke-miterlimit: 10;stroke-width: 1.072902622943238px"/>
          <path d="M38.3,26.43a3.29,3.29,0,0,1-3,2.77,3.29,3.29,0,0,1-3-2.77" style="fill: none;stroke: #000;stroke-miterlimit: 10;stroke-width: 1.072902622943238px"/>
        </g>
      </g>
    </g>
  </g>
</svg>
