<svg xmlns="http://www.w3.org/2000/svg" viewBox="0 0 22.18 18.17">
  <title>twitter</title>
  <g id="Layer_2" data-name="Layer 2">
    <g id="Layer_1-2" data-name="Layer 1">
      <path d="M10.77,4.83l.05.79L10,5.52A13.08,13.08,0,0,1,2.39,1.8L1.33.76l-.27.77a4.6,4.6,0,0,0,1,4.75c.64.67.5.77-.61.37-.38-.13-.72-.23-.75-.18a5.69,5.69,0,0,0,.58,2.15,5.08,5.08,0,0,0,2.19,2.05l.79.37-.93,0c-.9,0-.93,0-.84.35a4.84,4.84,0,0,0,3,2.63l1,.34-.86.51a9,9,0,0,1-4.3,1.19A4.38,4.38,0,0,0,0,16.21a12.45,12.45,0,0,0,3.09,1.41A13.64,13.64,0,0,0,13.6,16.43a14,14,0,0,0,5.34-6.22A16.64,16.64,0,0,0,20,5.4c0-.74,0-.84.94-1.72A10.76,10.76,0,0,0,22.1,2.44c.16-.3.14-.3-.68,0-1.36.48-1.55.42-.88-.3A4.7,4.7,0,0,0,21.63.39s-.24,0-.51.18a8.73,8.73,0,0,1-1.41.54l-.87.28L18.06.86A6.64,6.64,0,0,0,16.7.15a5.67,5.67,0,0,0-2.81.06A4.6,4.6,0,0,0,10.77,4.83Z" style="fill: #ec5741;fill-rule: evenodd"/>
    </g>
  </g>
</svg>
